<svg width="21" height="20" viewBox="0 0 21 20" fill="none" xmlns="http://www.w3.org/2000/svg">
<path d="M15.0464 16.5401L13.3539 17.5151C12.1827 18.1901 11.5964 18.5288 10.9739 18.6613C10.4226 18.7784 9.8528 18.7784 9.30145 18.6613C8.67895 18.5288 8.0927 18.1913 6.92145 17.5151L5.22895 16.5401C4.0577 15.8638 3.47145 15.5263 3.0452 15.0526C2.66812 14.6345 2.38321 14.1417 2.20895 13.6063C2.0127 13.0013 2.0127 12.3263 2.0127 10.9751V9.02509C2.0127 7.67259 2.0127 6.99759 2.20895 6.39259C2.38395 5.85634 2.66895 5.36384 3.04645 4.94634C3.47145 4.47259 4.0577 4.13509 5.22895 3.45884L6.92145 2.48384C8.0927 1.80884 8.67895 1.47009 9.30145 1.33759C9.8528 1.22048 10.4226 1.22048 10.9739 1.33759C11.5964 1.47009 12.1827 1.80759 13.3539 2.48384L15.0464 3.45884C16.2177 4.13509 16.8039 4.47259 17.2302 4.94634C17.6064 5.36384 17.8927 5.85634 18.0664 6.39259C18.2627 6.99759 18.2627 7.67259 18.2627 9.02509V10.9751C18.2627 12.3276 18.2627 13.0026 18.0664 13.6076C17.8914 14.1438 17.6064 14.6363 17.2289 15.0538C16.8039 15.5276 16.2177 15.8638 15.0464 16.5401ZM7.8577 15.8901C8.5352 16.2813 8.9352 16.5051 9.20145 16.6376V12.3163C9.20134 11.7988 9.05845 11.2914 8.7885 10.8498C8.51856 10.4083 8.13202 10.0498 7.67145 9.81384L3.89645 7.92634C3.8902 8.19759 3.8877 8.55134 3.8877 9.02384V10.9738C3.8877 12.4526 3.90895 12.7713 3.9927 13.0263C4.0852 13.3126 4.2377 13.5751 4.4377 13.7976C4.6177 13.9976 4.8852 14.1763 6.16645 14.9151L7.8577 15.8901ZM11.0764 16.6363C11.3414 16.5051 11.7414 16.2813 12.4177 15.8913L14.1089 14.9163C15.3914 14.1763 15.6577 13.9976 15.8377 13.7976C16.0377 13.5751 16.1902 13.3113 16.2827 13.0263C16.3652 12.7713 16.3877 12.4526 16.3877 10.9738V9.02509C16.3877 8.55259 16.3852 8.19884 16.3802 7.92759L12.6302 9.80259L12.6214 9.80634C12.1567 10.0409 11.7663 10.3999 11.4935 10.8433C11.2207 11.2866 11.0763 11.797 11.0764 12.3176V16.6376V16.6363ZM15.7727 6.13384C15.5852 5.95384 15.2477 5.73884 14.1102 5.08259L12.4177 4.10759C11.1364 3.36759 10.8477 3.22634 10.5839 3.17009C10.2897 3.10766 9.98567 3.10766 9.69145 3.17009C9.4277 3.22634 9.13895 3.36759 7.8577 4.10759L6.16645 5.08259C5.02895 5.73884 4.69145 5.95384 4.50395 6.13259L8.48395 8.12509L8.51645 8.14134L8.87895 8.32259C9.26956 8.51796 9.70032 8.61968 10.1371 8.61968C10.5738 8.61968 11.0046 8.51796 11.3952 8.32259L11.7802 8.13009L11.7914 8.12509L15.7714 6.13509L15.7727 6.13384Z" fill="#F4F5F8"/>
</svg>
