<svg width="145" height="145" viewBox="0 0 145 145" fill="none" xmlns="http://www.w3.org/2000/svg">
<path d="M59.0967 23.5066C62.5034 20.6034 64.2068 19.1518 65.9877 18.3005C70.1069 16.3317 74.8956 16.3317 79.0147 18.3005C80.7957 19.1518 82.499 20.6034 85.9058 23.5066C87.2617 24.662 87.9396 25.2398 88.6636 25.7251C90.3234 26.8375 92.1873 27.6096 94.1475 27.9966C95.0026 28.1654 95.8906 28.2362 97.6664 28.378C102.128 28.734 104.359 28.912 106.22 29.5694C110.525 31.09 113.911 34.4761 115.432 38.7809C116.089 40.6422 116.267 42.8731 116.623 47.3348C116.765 49.1107 116.836 49.9986 117.005 50.8537C117.392 52.8139 118.164 54.6778 119.276 56.3376C119.761 57.0616 120.339 57.7395 121.495 59.0954C124.398 62.5022 125.849 64.2055 126.701 65.9865C128.669 70.1056 128.669 74.8943 126.701 79.0135C125.849 80.7944 124.398 82.4978 121.495 85.9045C120.339 87.2604 119.761 87.9383 119.276 88.6624C118.164 90.3221 117.392 92.1861 117.005 94.1463C116.836 95.0014 116.765 95.8893 116.623 97.6651C116.267 102.127 116.089 104.358 115.432 106.219C113.911 110.524 110.525 113.91 106.22 115.43C104.359 116.088 102.128 116.266 97.6664 116.622C95.8905 116.764 95.0026 116.835 94.1475 117.003C92.1873 117.39 90.3234 118.162 88.6637 119.275C87.9396 119.76 87.2617 120.338 85.9058 121.493C82.499 124.397 80.7957 125.848 79.0147 126.699C74.8956 128.668 70.1069 128.668 65.9877 126.699C64.2068 125.848 62.5034 124.397 59.0967 121.493C57.7408 120.338 57.0629 119.76 56.3388 119.275C54.6791 118.162 52.8152 117.39 50.8549 117.003C49.9998 116.835 49.1119 116.764 47.3361 116.622C42.8743 116.266 40.6434 116.088 38.7822 115.43C34.4773 113.91 31.0912 110.524 29.5707 106.219C28.9133 104.358 28.7353 102.127 28.3792 97.6651C28.2375 95.8893 28.1667 95.0014 27.9978 94.1463C27.6108 92.1861 26.8388 90.3221 25.7263 88.6624C25.2411 87.9383 24.6633 87.2604 23.5078 85.9045C20.6046 82.4978 19.153 80.7944 18.3018 79.0135C16.333 74.8943 16.333 70.1056 18.3018 65.9865C19.153 64.2055 20.6046 62.5022 23.5078 59.0954C24.6633 57.7395 25.2411 57.0616 25.7263 56.3376C26.8388 54.6778 27.6108 52.8139 27.9978 50.8537C28.1667 49.9986 28.2375 49.1107 28.3792 47.3348C28.7353 42.8731 28.9133 40.6422 29.5707 38.7809C31.0912 34.4761 34.4773 31.09 38.7822 29.5694C40.6434 28.912 42.8743 28.734 47.3361 28.378C49.1119 28.2362 49.9998 28.1654 50.8549 27.9966C52.8152 27.6096 54.6791 26.8375 56.3388 25.7251C57.0629 25.2398 57.7408 24.662 59.0967 23.5066Z" stroke="white" stroke-width="9.88636"/>
<path d="M51.3564 75.5208L63.4398 87.6041L93.6481 57.3958" stroke="white" stroke-width="9.88636" stroke-linecap="round" stroke-linejoin="round"/>
</svg>
