<svg width="20" height="20" viewBox="0 0 20 20" fill="none" xmlns="http://www.w3.org/2000/svg">
<path d="M9.99973 3.12487C8.90783 3.12443 7.83152 3.38408 6.85992 3.88231C5.88832 4.38054 5.04936 5.10303 4.4125 5.98997C3.77564 6.87691 3.35919 7.90278 3.19764 8.98267C3.03609 10.0625 3.13407 11.1654 3.48348 12.1999C3.55242 12.4324 3.52858 12.6826 3.41695 12.8979C3.30533 13.1132 3.11462 13.2768 2.88487 13.3545C2.65512 13.4322 2.40422 13.4178 2.18486 13.3144C1.9655 13.2109 1.79475 13.0265 1.70848 12.7999C1.26531 11.4838 1.14177 10.0811 1.34806 8.70779C1.55434 7.33448 2.08454 6.03 2.89481 4.90219C3.70509 3.77437 4.77217 2.85561 6.00783 2.22186C7.2435 1.58811 8.61227 1.25757 10.001 1.25757C11.3897 1.25757 12.7585 1.58811 13.9941 2.22186C15.2298 2.85561 16.2969 3.77437 17.1071 4.90219C17.9174 6.03 18.4476 7.33448 18.6539 8.70779C18.8602 10.0811 18.7366 11.4838 18.2935 12.7999C18.2139 13.0357 18.0439 13.2304 17.8209 13.3409C17.5978 13.4514 17.34 13.4688 17.1041 13.3892C16.8682 13.3097 16.6736 13.1397 16.5631 12.9166C16.4526 12.6936 16.4352 12.4357 16.5147 12.1999C16.8641 11.1655 16.9621 10.0628 16.8006 8.98297C16.6391 7.90319 16.2228 6.87739 15.5861 5.99048C14.9494 5.10357 14.1106 4.38106 13.1391 3.88274C12.1677 3.38442 11.0915 3.12463 9.99973 3.12487Z" fill="#F4F5F8"/>
<path d="M4.52115 17.214L9.17615 9.23272C9.25807 9.08619 9.37759 8.96417 9.52239 8.87923C9.66719 8.79429 9.83202 8.74951 9.9999 8.74951C10.1678 8.74951 10.3326 8.79429 10.4774 8.87923C10.6222 8.96417 10.7417 9.08619 10.8236 9.23272L15.4786 17.214C15.9886 18.089 15.0661 19.1077 14.2011 18.6265L10.1511 16.3702C10.1049 16.3444 10.0529 16.3308 9.9999 16.3308C9.94694 16.3308 9.89487 16.3444 9.84865 16.3702L5.79865 18.6265C4.9324 19.1077 4.01115 18.089 4.52115 17.214Z" fill="#F4F5F8"/>
</svg>
