<svg width="24" height="24" viewBox="0 0 24 24" fill="none" xmlns="http://www.w3.org/2000/svg">
<path d="M4 11H16C17.8856 11 18.8284 11 19.4142 11.5858C20 12.1716 20 13.1144 20 15V16C20 18.8284 20 20.2426 19.1213 21.1213C18.2426 22 16.8284 22 14 22H10C7.17157 22 5.75736 22 4.87868 21.1213C4 20.2426 4 18.8284 4 16V11Z" stroke="#F2426E" stroke-width="1.5"/>
<path d="M4.00128 10.9997C3.51749 9.19418 3.27559 8.29141 3.48364 7.51495C3.61994 7.00629 3.88773 6.54246 4.2601 6.17009C4.82851 5.60168 5.73128 5.35979 7.53682 4.87599L14.5398 2.99956C15.213 2.81916 15.5496 2.72897 15.8445 2.70964C17.0553 2.63028 18.1946 3.2881 18.7313 4.37635C18.862 4.64136 18.9522 4.97797 19.1326 5.65121C19.1927 5.87562 19.2228 5.98782 19.2292 6.0861C19.2557 6.4897 19.0364 6.86949 18.6736 7.04838C18.5853 7.09194 18.4731 7.12201 18.2487 7.18214L4.00128 10.9997Z" stroke="#F2426E" stroke-width="1.5"/>
<path d="M14.7004 2.94147L14.0627 8.28874" stroke="#F2426E" stroke-width="1.5" stroke-linecap="round"/>
<path d="M8.42209 4.62378L7.78433 9.97105" stroke="#F2426E" stroke-width="1.5" stroke-linecap="round"/>
</svg>
